<svg width="251" height="32" viewBox="0 0 251 32" fill="none" xmlns="http://www.w3.org/2000/svg">
<path d="M22.5076 18.7726L17.158 24.1222C16.5056 24.7746 15.3965 24.7746 14.7441 24.1222L7.89399 17.2068C7.56779 16.8806 7.37207 16.424 7.37207 16.0325C7.37207 15.902 7.37207 15.8368 7.37207 15.7063C7.43731 15.3801 7.56779 15.0539 7.82875 14.8582L14.6789 8.00805C15.3313 7.35566 16.4404 7.35566 17.0928 8.00805L22.3772 13.2925L26.5525 9.11713L18.8542 1.22314C18.1366 0.505505 17.2885 0.114068 16.3751 0.0488281C16.2446 0.0488281 16.1142 0.0488281 15.9837 0.0488281C15.8532 0.0488281 15.7227 0.0488281 15.5923 0.0488281C15.3313 0.0488281 15.0703 0.114068 14.8094 0.179307C14.6789 0.244547 14.5484 0.244547 14.4179 0.309786C13.896 0.505505 13.4393 0.831703 13.0479 1.22314L12.0693 2.20173L1.17431 13.0967C0.587156 13.6839 0.195719 14.4668 0.0652396 15.1844C0 15.5106 0 15.7716 0 16.0325C0 16.424 0.0652396 16.8154 0.195719 17.2068C0.260958 17.533 0.391437 17.794 0.587156 18.1202C0.782875 18.4464 0.978593 18.7073 1.23955 18.9683L13.0479 30.7767C13.8308 31.5595 14.8746 31.951 15.9185 31.951C16.9623 31.951 18.0061 31.5595 18.789 30.7767L26.6177 22.9479L22.5076 18.7726Z" fill="#F4F4F4"/>
<path d="M57.6725 13.0316L57.4767 12.8359L52.649 8.00815C51.018 6.37717 48.3432 6.37717 46.7122 8.00815L35.9477 18.7727L33.1424 15.9674L42.8631 6.37717L43.7112 7.22528L47.6908 3.04995L46.9732 2.26707H46.9079L46.9732 2.20183L45.9946 1.22324C44.3636 -0.407747 41.6888 -0.407747 40.0578 1.22324L28.1842 13.0316C26.5532 14.6626 26.5532 17.3374 28.1842 18.9684C29.8804 20.6646 31.5766 22.3609 33.2729 24.0571C35.1648 25.8838 36.9915 25.8186 38.753 23.9266L39.9273 22.7523L49.7132 12.9664L51.1485 14.4016L52.7143 15.9674L43.385 25.3619L43.0588 25.6881L42.2759 24.9052L38.2963 29.0805L39.0792 29.8634L39.9925 30.7768C41.6235 32.4077 44.2983 32.4077 45.9293 30.7768L57.6725 18.9684C59.3034 17.3374 59.3034 14.6626 57.6725 13.0316Z" fill="#18B270"/>
<path d="M74.2951 25.4498C72.4951 25.4498 70.8951 25.0498 69.4951 24.2498C68.0951 23.4498 66.8951 22.2498 66.0951 20.7498C65.2951 19.3498 64.8951 17.7498 64.8951 15.9498C64.8951 14.1498 65.2951 12.6498 66.0951 11.1498C66.8951 9.74981 67.9951 8.54981 69.4951 7.74981C70.8951 6.94981 72.4951 6.5498 74.2951 6.5498C75.9951 6.5498 77.4951 6.94981 78.8951 7.74981C80.2951 8.54981 81.3951 9.54981 82.1951 10.9498L77.6951 13.5498C77.3951 12.9498 76.9951 12.5498 76.2951 12.1498C75.6951 11.8498 74.9951 11.6498 74.2951 11.6498C73.4951 11.6498 72.6951 11.8498 72.0951 12.2498C71.4951 12.6498 70.9951 13.1498 70.5951 13.8498C70.1951 14.5498 70.0951 15.2498 70.0951 16.0498C70.0951 16.8498 70.2951 17.6498 70.5951 18.2498C70.8951 18.9498 71.3951 19.4498 72.0951 19.8498C72.6951 20.2498 73.4951 20.4498 74.2951 20.4498C75.0951 20.4498 75.7951 20.2498 76.3951 19.9498C76.9951 19.6498 77.4951 19.1498 77.6951 18.5498L82.1951 21.1498C81.3951 22.4498 80.2951 23.5498 78.8951 24.3498C77.4951 25.0498 75.8951 25.4498 74.2951 25.4498ZM88.5951 19.3498V24.9498H83.4951V7.0498H90.6951C91.9951 7.0498 93.0951 7.34981 94.1951 7.84981C95.1951 8.34981 95.9951 9.0498 96.5951 10.0498C97.1951 11.0498 97.4951 12.1498 97.4951 13.3498C97.4951 14.4498 97.2951 15.3498 96.7951 16.2498C96.2951 17.1498 95.5951 17.7498 94.7951 18.3498L98.2951 25.0498H92.7951L89.9951 19.4498H88.5951V19.3498ZM90.4951 15.0498C90.9951 15.0498 91.4951 14.9498 91.7951 14.6498C92.0951 14.3498 92.2951 13.9498 92.2951 13.4498C92.2951 12.9498 92.0951 12.5498 91.7951 12.2498C91.4951 11.9498 91.0951 11.8498 90.4951 11.8498H88.5951V15.1498H90.4951V15.0498ZM107.995 25.4498C106.295 25.4498 104.695 25.0498 103.195 24.2498C101.695 23.4498 100.595 22.2498 99.7951 20.8498C98.9951 19.4498 98.4951 17.8498 98.4951 16.0498C98.4951 14.2498 98.8951 12.7498 99.7951 11.2498C100.595 9.84981 101.795 8.64981 103.195 7.84981C104.695 7.04981 106.195 6.64981 107.995 6.64981C109.695 6.64981 111.295 7.04981 112.795 7.84981C114.295 8.64981 115.395 9.84981 116.195 11.2498C116.995 12.6498 117.495 14.2498 117.495 16.0498C117.495 17.8498 117.095 19.3498 116.195 20.8498C115.395 22.2498 114.195 23.4498 112.795 24.2498C111.395 24.9498 109.795 25.4498 107.995 25.4498ZM107.995 20.3498C108.795 20.3498 109.595 20.1498 110.295 19.7498C110.995 19.3498 111.495 18.8498 111.895 18.1498C112.295 17.4498 112.495 16.7498 112.495 15.9498C112.495 15.1498 112.195 14.4498 111.895 13.8498C111.495 13.1498 110.995 12.6498 110.295 12.2498C109.595 11.8498 108.895 11.6498 107.995 11.6498C107.095 11.6498 106.395 11.8498 105.695 12.2498C104.995 12.6498 104.495 13.1498 104.095 13.8498C103.695 14.5498 103.495 15.2498 103.495 16.0498C103.495 16.8498 103.695 17.6498 104.095 18.2498C104.495 18.9498 104.995 19.4498 105.695 19.8498C106.495 20.1498 107.195 20.3498 107.995 20.3498ZM128.195 25.4498C126.395 25.4498 124.795 25.0498 123.395 24.2498C121.995 23.4498 120.895 22.3498 119.995 20.8498C119.095 19.3498 118.795 17.8498 118.795 16.0498C118.795 14.2498 119.195 12.7498 119.995 11.2498C120.795 9.84981 121.895 8.64981 123.395 7.84981C124.795 7.04981 126.395 6.64981 128.195 6.64981C129.895 6.64981 131.395 7.04981 132.795 7.84981C134.195 8.64981 135.295 9.6498 136.095 11.0498L131.595 13.6498C131.295 13.0498 130.895 12.6498 130.195 12.2498C129.595 11.9498 128.895 11.7498 128.195 11.7498C127.395 11.7498 126.595 11.9498 125.995 12.3498C125.395 12.7498 124.895 13.2498 124.495 13.9498C124.095 14.6498 123.995 15.3498 123.995 16.1498C123.995 16.9498 124.195 17.7498 124.495 18.3498C124.895 19.0498 125.395 19.5498 125.995 19.9498C126.595 20.3498 127.395 20.5498 128.195 20.5498C128.995 20.5498 129.695 20.3498 130.295 20.0498C130.895 19.7498 131.395 19.2498 131.595 18.6498L136.095 21.2498C135.295 22.5498 134.195 23.6498 132.795 24.4498C131.395 25.0498 129.895 25.4498 128.195 25.4498ZM145.695 25.4498C143.995 25.4498 142.395 25.0498 140.895 24.2498C139.395 23.4498 138.295 22.2498 137.495 20.8498C136.695 19.4498 136.195 17.8498 136.195 16.0498C136.195 14.2498 136.595 12.7498 137.495 11.2498C138.295 9.84981 139.495 8.64981 140.895 7.84981C142.395 7.04981 143.895 6.64981 145.695 6.64981C147.395 6.64981 148.995 7.04981 150.495 7.84981C151.995 8.64981 153.095 9.84981 153.895 11.2498C154.695 12.6498 155.195 14.2498 155.195 16.0498C155.195 17.8498 154.795 19.3498 153.895 20.8498C153.095 22.2498 151.895 23.4498 150.495 24.2498C149.095 24.9498 147.495 25.4498 145.695 25.4498ZM145.695 20.3498C146.495 20.3498 147.295 20.1498 147.995 19.7498C148.695 19.3498 149.195 18.8498 149.595 18.1498C149.995 17.4498 150.195 16.7498 150.195 15.9498C150.195 15.1498 149.895 14.4498 149.495 13.8498C149.095 13.1498 148.595 12.6498 147.895 12.2498C147.195 11.8498 146.495 11.6498 145.595 11.6498C144.795 11.6498 143.995 11.8498 143.295 12.2498C142.595 12.6498 142.095 13.1498 141.695 13.8498C141.295 14.5498 141.095 15.2498 141.095 16.0498C141.095 16.8498 141.295 17.6498 141.695 18.2498C142.095 18.9498 142.595 19.4498 143.295 19.8498C144.095 20.1498 144.895 20.3498 145.695 20.3498Z" fill="#F4F4F4"/>
<path d="M168.095 25.4996C165.995 25.4996 164.295 25.0996 162.995 24.1996C161.595 23.2996 160.695 22.1996 160.195 20.6996L164.795 17.9996C165.195 18.8996 165.595 19.4996 166.195 19.8996C166.795 20.2996 167.495 20.4996 168.295 20.4996C168.895 20.4996 169.395 20.3996 169.695 20.1996C169.995 19.9996 170.095 19.7996 170.095 19.4996C170.095 19.0996 169.895 18.8996 169.595 18.6996C169.195 18.4996 168.595 18.2996 167.795 18.0996C167.295 17.9996 166.895 17.8996 166.795 17.7996C164.995 17.2996 163.695 16.4996 162.695 15.5996C161.695 14.5996 161.195 13.2996 161.195 11.6996C161.195 10.5996 161.495 9.49961 162.095 8.59961C162.695 7.69961 163.495 6.99961 164.495 6.39961C165.495 5.89961 166.695 5.59961 168.095 5.59961C169.695 5.59961 171.095 5.99962 172.395 6.69962C173.695 7.49962 174.595 8.49961 175.195 9.99961L170.695 12.5996C170.395 11.8996 170.095 11.3996 169.595 11.0996C169.095 10.7996 168.595 10.5996 168.095 10.5996C167.595 10.5996 167.295 10.6996 166.995 10.8996C166.795 11.0996 166.595 11.2996 166.595 11.5996C166.595 11.9996 166.795 12.2996 167.195 12.4996C167.595 12.6996 168.395 12.9996 169.695 13.2996C170.895 13.6996 171.995 13.9996 172.795 14.4996C173.595 14.8996 174.295 15.4996 174.795 16.2996C175.295 17.0996 175.595 18.0996 175.595 19.2996C175.595 21.1996 174.895 22.6996 173.595 23.7996C172.195 24.9996 170.395 25.4996 168.095 25.4996ZM196.395 15.5996C196.395 17.7996 195.795 19.7996 194.495 21.4996L195.995 23.1996L192.295 26.3996L190.595 24.5996C189.295 25.1996 187.795 25.4996 186.395 25.4996C184.595 25.4996 182.895 25.0996 181.295 24.1996C179.795 23.2996 178.595 22.0996 177.695 20.5996C176.795 19.0996 176.395 17.3996 176.395 15.5996C176.395 13.7996 176.795 12.0996 177.695 10.5996C178.595 9.09961 179.795 7.89961 181.295 6.99961C182.795 6.09961 184.495 5.69962 186.395 5.69962C188.195 5.69962 189.895 6.09961 191.495 6.99961C193.095 7.89961 194.195 9.09961 195.095 10.5996C195.895 12.0996 196.395 13.7996 196.395 15.5996ZM184.195 17.6996L187.895 14.4996L190.595 17.4996C190.795 16.9996 190.895 16.3996 190.895 15.6996C190.895 14.7996 190.695 13.9996 190.295 13.2996C189.895 12.5996 189.395 11.9996 188.595 11.5996C187.895 11.1996 187.095 10.9996 186.195 10.9996C185.295 10.9996 184.495 11.1996 183.795 11.5996C183.095 11.9996 182.495 12.4996 182.095 13.2996C181.695 13.9996 181.495 14.7996 181.495 15.6996C181.495 16.5996 181.695 17.3996 182.095 18.0996C182.495 18.7996 182.995 19.3996 183.795 19.7996C184.495 20.1996 185.295 20.3996 186.195 20.3996H186.395L184.195 17.6996ZM205.995 25.4996C204.495 25.4996 203.095 25.1996 201.995 24.6996C200.795 24.0996 199.895 23.2996 199.295 22.2996C198.695 21.2996 198.295 20.0996 198.295 18.7996V6.09961H203.695V18.0996C203.695 18.7996 203.895 19.3996 204.295 19.7996C204.695 20.1996 205.295 20.3996 205.995 20.3996C206.695 20.3996 207.395 20.1996 207.695 19.7996C208.095 19.3996 208.295 18.7996 208.295 18.0996V6.09961H213.695V18.6996C213.695 19.9996 213.395 21.1996 212.695 22.1996C212.095 23.1996 211.095 23.9996 209.995 24.5996C208.895 25.1996 207.495 25.4996 205.995 25.4996ZM220.395 22.6996L219.795 25.0996H213.995L219.995 6.19962H226.295L232.295 25.0996H226.495L225.895 22.6996H220.395ZM223.195 12.4996L221.595 18.2996H224.695L223.195 12.4996ZM241.295 6.09961C242.995 6.09961 244.595 6.49961 245.995 7.29961C247.395 8.09961 248.495 9.29962 249.295 10.6996C250.095 12.0996 250.495 13.6996 250.495 15.4996C250.495 17.2996 250.095 18.8996 249.295 20.2996C248.495 21.6996 247.395 22.8996 245.995 23.6996C244.595 24.4996 242.995 24.8996 241.295 24.8996H233.495V6.09961H241.295ZM241.295 19.7996C242.395 19.7996 243.295 19.3996 243.995 18.5996C244.695 17.7996 245.095 16.7996 245.095 15.5996C245.095 14.3996 244.695 13.2996 243.995 12.5996C243.295 11.7996 242.395 11.3996 241.295 11.3996H239.195V19.7996H241.295Z" fill="#18B270"/>
</svg>
